<?xml version="1.0" encoding="UTF-8"?>
<svg width="25px" height="20px" viewBox="0 0 25 20" version="1.1" xmlns="http://www.w3.org/2000/svg" xmlns:xlink="http://www.w3.org/1999/xlink">
    <!-- Generator: Sketch 48.2 (47327) - http://www.bohemiancoding.com/sketch -->
    <title>np_quote_77746_000000</title>
    <desc>Created with Sketch.</desc>
    <defs></defs>
    <g id="Home" stroke="none" stroke-width="1" fill="none" fill-rule="evenodd" transform="translate(-894.000000, -3406.000000)">
        <g id="Testimonials" transform="translate(357.000000, 3314.000000)" fill="#EDEDED" fill-rule="nonzero">
            <g id="Group-18" transform="translate(0.000000, 75.000000)">
                <g id="Group-12" transform="translate(373.000000, 0.000000)">
                    <g id="np_quote_77746_000000" transform="translate(164.000000, 17.000000)">
                        <path d="M14.7058824,0 L14.7058824,10 L20.5882353,10 C20.5882353,13.1550831 17.9537893,15.7142857 14.7058824,15.7142857 L14.7058824,20 C20.3915185,20 25,15.5231894 25,10 L25,0 L14.7058824,0 Z M0,10 L5.88235294,10 C5.88235294,13.1550831 3.24790698,15.7142857 0,15.7142857 L0,20 C5.68563611,20 10.2941176,15.5231894 10.2941176,10 L10.2941176,0 L0,0 L0,10 Z" id="Shape"></path>
                    </g>
                </g>
            </g>
        </g>
    </g>
</svg>