<?xml version="1.0" encoding="UTF-8"?>
<svg width="16px" height="16px" viewBox="0 0 16 16" version="1.1" xmlns="http://www.w3.org/2000/svg" xmlns:xlink="http://www.w3.org/1999/xlink">
    <!-- Generator: Sketch 50.2 (55047) - http://www.bohemiancoding.com/sketch -->
    <title>np_search_929174_000000</title>
    <desc>Created with Sketch.</desc>
    <defs></defs>
    <g id="Page-1" stroke="none" stroke-width="1" fill="none" fill-rule="evenodd">
        <g id="Home-Copy" transform="translate(-919.000000, -99.000000)" fill="#A8A8A8" fill-rule="nonzero">
            <g id="Header-4" transform="translate(-5.000000, 0.000000)">
                <g id="Group-9" transform="translate(500.000000, 83.000000)">
                    <g id="np_search_929174_000000" transform="translate(424.000000, 16.000000)">
                        <path d="M15.8466462,15.1070536 L11.5917013,10.8522476 C12.6094791,9.66226475 13.1656858,8.16524015 13.1656858,6.5824537 C13.1656858,4.82399572 12.4808059,3.17114979 11.2377674,1.92733268 C9.99464163,0.684927225 8.34170687,0 6.58319148,0 C4.82467608,0 3.17177618,0.684857514 1.92791846,1.92785551 C0.684792734,3.17162034 0,4.82451855 0,6.58297653 C0,8.3414345 0.684879876,9.99428044 1.92791846,11.2380975 C3.17104419,12.4818624 4.82397895,13.1659531 6.58319148,13.1659531 C8.16602962,13.1659531 9.66242339,12.6097645 10.8531248,11.5920199 L15.1080698,15.8468259 C15.2101892,15.948942 15.3443104,16 15.4777414,16 C15.6111725,16 15.7453007,15.948942 15.8474131,15.8468259 C16.0509756,15.6425904 16.0509756,15.3110627 15.8467323,15.1068271 L15.8466462,15.1070536 Z M6.58315662,12.1204635 C5.1037903,12.1204635 3.71358715,11.5445293 2.66719206,10.4981858 C1.6208144,9.45184233 1.0448614,8.06178915 1.0448614,6.58234913 C1.0448614,5.10303111 1.6208144,3.71287335 2.66719206,2.66651243 C3.71289002,1.62084862 5.1036683,1.04423474 6.58315662,1.04423474 C8.06184324,1.04423474 9.45272609,1.62016894 10.4991212,2.66651243 C11.5448191,3.71217624 12.1214518,5.10290911 12.1214518,6.58165202 C12.1214518,8.06097004 11.5454988,9.4511278 10.4991212,10.4974887 C9.45274352,11.5445119 8.06194781,12.1204461 6.58315662,12.1204461 L6.58315662,12.1204635 Z" id="Shape"></path>
                    </g>
                </g>
            </g>
        </g>
    </g>
</svg>